<svg width="120" height="30" viewBox="0 0 120 30" fill="none" xmlns="http://www.w3.org/2000/svg">
<path d="M52.9711 1L14.9681 1.00243L14.9705 1.00487C12.0876 1.00487 9.60971 2.73616 8.5332 5.20526L1.03152 23.3533C1.01212 23.3996 1 23.4508 1 23.5068C1 23.7235 1.17942 23.9012 1.39763 23.9012H18.5564C19.776 23.9012 20.307 22.7227 19.3566 21.7803L13.0551 15.8584C9.74307 12.5979 11.1639 5.03724 18.0424 5.03724H51.6351C51.8097 5.03724 51.9576 4.92523 52.0109 4.77182L53.3396 1.54544C53.359 1.49918 53.3687 1.44804 53.3687 1.39447C53.3687 1.17532 53.1917 1 52.9711 1Z" fill="#fff"/>
<path d="M49.1837 10.2344L42.7319 10.2417C42.2979 10.2417 41.9221 10.5047 41.7669 10.8821L34.5392 28.4214C34.5101 28.475 34.4932 28.5383 34.4932 28.6041C34.4932 28.8208 34.6726 28.9961 34.8908 28.9961H37.2984V28.9937C40.2225 28.9937 42.7465 27.2161 43.7987 24.691C43.7987 24.691 43.8036 24.6934 43.806 24.6959L49.5499 10.7701C49.5668 10.7238 49.579 10.6751 49.579 10.624C49.579 10.4097 49.402 10.2344 49.1837 10.2344Z" fill="#fff"/>
<path d="M36.5039 10.6288C36.5039 10.4097 36.3245 10.2344 36.1063 10.2344H17.8176C16.8259 10.2344 15.9579 11.4592 17.0078 12.4308L23.0499 18.0775C23.0499 18.0775 25.4963 20.3421 24.9725 23.5831C24.5095 26.4369 22.5722 28.1828 21.1684 28.811H21.1635C21.1296 28.8281 21.1078 28.8622 21.1078 28.8987C21.1078 28.9523 21.1514 28.9985 21.2072 28.9985H28.2554C28.6919 28.9985 29.0653 28.7356 29.2204 28.3581L36.4748 10.7676C36.4942 10.7238 36.5039 10.6775 36.5039 10.6288Z" fill="#fff"/>
</svg>
